<?xml version="1.0" encoding="utf-8"?>
<!-- Generator: Adobe Illustrator 21.0.2, SVG Export Plug-In . SVG Version: 6.00 Build 0)  -->
<svg version="1.1" id="svg8" xmlns="http://www.w3.org/2000/svg" xmlns:xlink="http://www.w3.org/1999/xlink" x="0px" y="0px"
	 viewBox="0 0 6033.7 4564" style="enable-background:new 0 0 6033.7 4564;" xml:space="preserve">
<style type="text/css">
	.st0{fill:#002BF1;}
	.st1{fill:none;stroke:#000000;stroke-miterlimit:10;}
	.st2{fill:#FFFFFF;stroke:#000000;stroke-miterlimit:10;}
	.st3{fill:#ECF500;}
	.st4{fill:#0040F5;}
	.st5{fill:none;}
	.st6{stroke:#000000;stroke-miterlimit:10;}
</style>
<title>FinishedSVGBlueBG</title>
<g id="layer1">
	<path id="path25" d="M6014.1,0c4.7,1.9,9.3,4,13.6,6.1l5.9-4.2C6027.2,1.4,6020.6,0.8,6014.1,0z"/>
</g>
<g id="g5065">
	<path d="M3085.6,1724.3l0.7-19.9c-0.6-13.7,2.3-27.4,8.5-39.7c12.5-31.7,17.1-52.5,22.5-103.2c0.8-7,1.2-14,1.3-21h13.6
		c-0.6,28.5-3.9,56.8-10,84.7c-3.3,13.3-7.5,26.3-12.4,39.1c-8.5,21.8-8.8,23-9.6,40.6l-0.8,18.2l8.1,0.9
		c11.5,1.7,22.1,7.3,29.9,15.9c10,9,15.1,22.1,14,35.4c0.8,7.6-0.7,15.3-4.3,22.1c-7.7,16.3-23.3,27.7-41.4,30.2
		c-6.6,1.4-13.4,1.1-19.8-1.1c-27.1-6.7-44.3-33-39.1-60c2.7-16.3,13.4-30.3,28.7-37.4L3085.6,1724.3z"/>
	<path class="st0" d="M2311.8,2398.7c5.6,5.5,9,3.3,21.6-13.7c6.5-8.9,14.1-18.8,16.9-22.1c19.1-22.7,54.7-69.8,176.1-232.6
		l139.8-187.6c1.1-1.4,1.7-2.1,1.9-2.1c0.2,0.1,0,1,0,2.9s-7.2,49.6-15.2,105.7c-8,56.1-22.5,156.8-32.3,223.6
		s-33.8,234.4-53.5,372.3c-19.8,137.9-44.2,307.7-54.3,377.4C2396.9,3827.1,2369,4022.6,2369,4026.9c-0.1,2.6,0.7,5.1,2.3,7.1
		c1.9,1.5,19.9,1.3,93.6-1c50.2-1.7,91.5-2.9,91.7-2.8c0.2,0.1-4.2,19.7-9.9,43.3c-11.6,49-8.6,44.8-27.9,39.7
		c-101.7-26.5-201.1-60.8-297.3-102.7c-50.2-21.7-158.4-76-177.7-89.1c-3.2-2.2-4.3-13.3-49-526c-25.2-288.1-45.8-524.5-45.8-525.4
		s43.4-60.5,47.2-63.5c1.5-1.3,71.6-93.1,156-204.1s154.2-202.7,155.3-203.9C2308.7,2397.2,2309.6,2396.6,2311.8,2398.7z"/>
	<path d="M3351.9,1927.8c373,1277,535,1832.1,535,1834.5c-0.3,2.1-1.6,4-3.5,5.2c-1.9,1.2-36.3,17.1-76.6,35.6
		c-57.1,26.1-72.7,33.9-72.7,35.7c0,1.8,11.1,38.2,23.8,81.9c26.9,92.3,24.2,83.3,26.3,83.3c1,0,24.2-10.8,50.9-23.8
		c64.9-31,127.7-65.9,188.2-104.5c46.9-29.7,55.4-35.6,56.5-39.1c0.4-1.7,41.8-369.7,91.8-817.9c50.1-448.2,91.3-816.5,91.7-818.3
		c0.6-3,0-3.3-1.9-1.4c-14.1,11.7-51,42.9-60.6,51.4c-16.9,14.9-353.8,297.7-357.9,300.3c-2.2,1.6-5.1,1.6-7.3,0c-2.2-1-4-2.4-4-3
		c0-0.6-1.3-1.5-2.9-2.1c-7.8-7.5-14.8-15.7-21-24.5c-9.8-13.3-18.7-24.8-19.5-25.9c-2-2.2-3.8-4.5-5.5-7
		c-4.2-6-435.5-582.4-437.2-584.4C3347.2,1912,3349.3,1920,3351.9,1927.8z M3235.1,998.7c2.2,1.3,98.5,174,98.5,176.4
		c2.2,4.7,4.6,9.3,7.4,13.7c4.1,6.8,126.2,218.1,271.4,469.5s266.5,461.2,270,466.3c2.2,3.2,4.2,6.6,6,10.2
		c0,0.4,8.1,15.1,18.3,32.5s18.3,32.4,18.4,33.3s2.3-0.8,4.9-3.7l93.8-102.1l122.1-132.6c18.3-19.8,44.3-48.2,57.7-63.1
		c34.6-38.2,34.3-37.9,48.5-47c7.8-4.8,16.3-8.2,25.3-10.2c5.5-1.2,10.9-2.9,16.2-5.1c-5.2-3-10.6-5.7-16.2-7.9
		c-77.7-35.9-132.7-106.7-147.7-189.7c-4.5-29.5-4.5-59.4,0-88.9c25.5-142.5,163.7-237.6,308.7-212.5
		c110.4,19.1,196.8,104,216.3,212.5c4.5,29.5,4.5,59.4,0,88.9c-11.4,63-45.9,119.7-96.9,159.4c-7.5,5.9-13,10.8-12.2,11l8.1,2.1
		c6.4,1.5,18.9,13.5,172.4,164l165.6,162.4l-1.5-13.1c-9.4-91.4-25.1-182.1-47.2-271.5c-17.8-70.8-39.8-140.5-65.9-208.8
		c-24-61.9-51.4-122.5-82-181.6c-108.3-213.7-258-404.6-440.6-562.1c-120.5-104.4-254.3-192.9-398.1-263.3
		c-63.9-31.9-129.6-60.2-196.8-84.8c-24.2-9-109.6-36.8-124.9-40.5l-12.2-3.5c-12.3-3.7-49.2-13.6-53.5-14.4c-1.7,0-5.7-1.3-9.1-2.2
		s-8.1-2-9.9-2.4c-1.9-0.4-9.4-2.1-16.2-3.7c-10.3-2.5-20.3-4.6-52.7-11.3c-20.3-4.2-57.6-10.6-91.7-15.9
		c-34.2-5.3-65.2-9.6-72.7-9.9c-1.1,0-1.6,0-1.8,0s7.5,6.2,16.9,13.2c61.4,45.2,103.8,110.8,119.5,184.6
		c18.4,88.8-4.2,181-61.7,251.8c-17.2,20.9-37.1,39.5-59,55.6l-17.6,12.6l0.7,6.7c0.5,3.8,0.3,7.7-0.6,11.4
		c-1.2,4.3-0.8,5.2,4.3,10.2c5.1,4.9,5.9,5.3,10.6,3.6C3230.1,997.7,3232.8,997.6,3235.1,998.7z M3067.1,1367.7
		c4.1,7.9,15.3,29.5,24.8,48.2l17.4,33.8l21.6-20.6l75.4-72.4c29.6-28.4,53.9-52.1,53.9-52.5c0-0.5-11.3-14.6-25.2-31.7
		c-9.3-10.6-17.7-21.9-25.2-33.8c0-1.8,0.7-3.5,1.9-4.9c1-1,24.8-14.8,52.7-30.6c27.9-15.8,50.8-29.4,50.8-30.2
		c0-0.8-83-152.3-84.2-152.7c-1.1-0.4-171.6,327.7-171.5,330.4C3061.6,1356.4,3064.1,1362.2,3067.1,1367.7L3067.1,1367.7z
		 M2890.7,4547.6c-56.1,0-10.2,0.4,102,0.4s158.1,0,102-0.4h-102H2890.7z M2972.5,1513.4c-18.9,35.5-42.8,80.7-53.1,100.6l-18.8,36
		l11.3-10.6c6.2-5.9,46-43.9,88.8-84.6l87.7-84.2l10.6-10.2l-4.1-9.3c-2.3-5.2-6.5-13.3-9.3-18.1s-8.1-14.4-10.8-21.2
		c-3.3-7.3-7-14.4-11.1-21.3c-3-4.9-7.1-12.2-9.1-16.4l-3.7-7.5l-3.4,5.8c-1.9,3.3-11.7,21.7-21.8,41.2
		C3015.6,1433.1,2991.4,1477.9,2972.5,1513.4z M3151.2,4015.2c-163.8,26.7-298.1,48.8-298.3,49.1c-0.2,0.3-3.6,21.4-7.5,47
		s-7.4,48.3-8.1,50.5c-1,5.1-0.6,5.2,34.5,7.4c72.8,4.3,145.7,4.7,218.5,1.3c102.1-5.2,203.6-18.2,303.7-38.9
		c39.3-8.3,85.6-19.7,87.5-21.4c1.9-1.7,0.5-14.9-5-66.3c-3.8-35.5-7.3-69.1-8.1-74.6c0-3.5-0.7-6.9-2.3-10.1
		c-3.2,1-6.4,2.2-9.4,3.7C3450.2,3965.9,3402,3974.2,3151.2,4015.2L3151.2,4015.2z M2880,1699.1c0,4.4-21.4,529.7-46.9,1167.4
		s-46.9,1166.8-47.4,1176.2c-0.7,13.3-0.5,16.8,1,16.8s149.9-24.3,330.7-53.9l328.7-53.8l32.3-14.6l177.7-81.4l178.9-81.4
		c18-7.9,33.4-15.9,34.1-15.9s-123-426.4-274.6-946.2c-151.6-519.8-275.9-946.5-275.6-948.2c0.6-3.6,4-6,7.7-5.4
		c0.5,0.1,0.9,0.2,1.4,0.4c2.7,0.7,53.9,68.2,188.2,247.5l188,251.3l9.6,13.3c3.3,4.7,8.9,11.9,12.3,15.9s19.5,25.7,35.9,47.6
		l30.9,41.3c5.4,6.7,35.4,47.1,36.6,49.3c1.2,2.1,1.8,2.5,2.1,2.2c0.3-0.3,15-59.6,32.8-131.8c17.8-72.2,33.1-134.9,34.3-139.5
		s2.6-11.6,3.1-15.9c0.2-3.1,1-6.2,2.3-9c3.8-7.9,5.7-16.6,5.4-25.4c-4.1-10.8-9.3-21.3-15.4-31.1c-8.1-13.7-14.5-25.4-14.5-25.9
		c-1.1-2.6-2.5-5-4.1-7.3c-2.3-3.5-126.6-218.1-276.3-477c-149.7-258.9-273.1-472-274.6-473.7s-1.1-1.3-2.1-1.3
		c-3.3,0-12.3,5.1-46,24.3c-25.2,14.3-46,26.7-46.3,27.4c7,10.3,14.6,20.3,22.7,29.8c24.7,30.2,27,33.6,24.9,36.9
		c-1,1.6-155.7,150.8-161.5,155.9c0.9,7.5,2.8,14.9,5.6,21.9c3.8,11.4,8.1,24.8,8.9,29.8c1.5,8.7,2.1,17.5,1.7,26.4h-13.6
		c-0.2-15.9-3.1-31.6-8.7-46.4l-6.4-19.1l-111.4,107.7l-111.6,107.8L2880,1699.1z M2710.4,1297.3c0,0.8,33.6,7.9,74.7,15.2
		c49.7,9.1,75.1,14.4,76,15.9c0.9,1.6,1.3,3.3,1.4,5.1c-6.8,12.3-14.5,24-23.1,35.2c-16.2,22.8-22.8,32.7-21.8,34.1
		c1,1.4,139.8,102.4,141.4,102.6c1.6,0.2,10.2-17.3,21.4-38.6c11.2-21.3,20.7-39.7,20.9-40.4s-155.2-280.4-167.7-300.9l-2.4-4
		l-60.4,87.3c-32.9,47.8-60,87.7-60,88.6H2710.4z M3209.1,4549.4c-129.2,0.8-454.3,0.9-468.9,0c-11.2-0.7-38.4-3.7-47.3-5
		c-4.7-0.8-11.9-1.7-16.2-2.2c-4.3-0.5-9.4-1.2-11.5-1.6l-38.2-5.8c-5.1-0.8-53.9-9.4-60.4-10.6c-50.2-9.8-101.2-21.1-139.1-30.9
		c-12.6-3.2-24.2-6.1-26-6.4c-1.8-0.4-3.6-0.8-5.3-1.4c-1.3-0.5-10.2-3-19.9-5.6c-9.7-2.6-24.2-6.7-32.3-9
		c-8.1-2.4-16.2-4.6-17.6-4.9c-1.9-0.4-3.8-0.9-5.6-1.7c-1.7-0.7-3.5-1.2-5.3-1.6c-1.1-0.1-2.1-0.4-3.1-0.8l-1.5-0.6
		c-4.8-1-74.7-24.4-101.3-34c-84.3-29.9-166.5-65.1-246.3-105.2c-195.9-97.7-377-222-537.8-369.1c-31.2-28.4-99.3-96-127-126.1
		c-185.4-199.3-333.1-429.5-436.1-679.8c-91.1-220.9-145.4-454.8-160.8-692.6c-2.1-34.5-2.1-274.3,0-306.1
		c35.3-516.8,251.1-1005.9,610.8-1384.4c31.7-33.5,101-100.8,133.7-129.9c360.5-321.4,815.2-522.4,1299.1-574.2
		c0.9-0.3,1.8-0.5,2.7-0.6c1.3-0.1,2.6-0.1,3.9,0c22.7-2.4,45.5-4.6,68.2-6.3c11.8-1,53-1.4,100.4-1.7h1.2c1.3-0.1,2.6-0.1,4,0h14.6
		h0.5c17.9,0,33.8,0,52.6,0c77.9,0,155.8,0.6,173.8,2.1c219.5,16.5,435.6,63.2,642,138.7c140.3,52.2,275.1,117.5,402.8,194.9
		c52.8,32.4,124.9,79.9,126.1,83.2c0.4,0.8,1.2,1.3,2.1,1.3c5.5,2.8,10.5,6.5,14.7,10.9c0.4,0.7,1.2,1.1,2,1.1
		c7,4.2,13.7,8.8,20.1,13.8c487.8,359.9,810.6,895.1,897.6,1488.5l4.3,27.7v588.3l-5,32.3c-15.3,102.4-37.6,203.6-66.8,303
		c-51,172.6-122.8,338.6-213.9,494.5c-7.3,12.3-13.2,22.5-13.2,22.7s-8.1,13.1-17.8,28.7l-19.5,31.3c-1,1.7-5.8,9.1-10.7,16.5
		c-73.5,111.4-156.7,216.3-248.6,313.7c-25.3,26.7-97.3,97.5-122.3,120.1c-292.8,266.1-651,452.7-1039.3,541.6
		c-86.5,19.8-198.4,38.5-253,42.6c-0.4,0-0.8,0-1.1,0c-2.1,0.3-4.2,0.3-6.3,0c-4.8,0-22.1,0-45.7,0.5h-1.8c-1.4,0.4-2.8,0.6-4.3,0.5
		H3209.1z M2464.7,4033c-73.7,2.4-91.7,2.5-93.6,1c-1.6-2-2.5-4.5-2.3-7.1c0-4.8,27.9-199.9,143.7-1004.5
		c10.1-69.8,34.5-239.6,54.3-377.4c19.8-137.8,43.9-305.4,53.5-372.3c9.6-66.9,24.2-167.5,32.3-223.6
		c8.1-56.1,14.8-103.7,15.2-105.7s0.4-2.7,0-2.9c-0.4-0.2-0.7,0.6-1.9,2.1l-139.8,187.6c-121.1,162.9-157,209.9-176.1,232.6
		c-2.7,3.3-10.3,13.3-16.9,22.1c-12.5,17-16.2,19.1-21.6,13.7c-2.2-2.1-2.8-2.1-4.5,0c-1.7,2.1-70.7,92.6-154.7,203.5
		c-84,111-154.8,202.9-156.3,203.8c-3.9,3.3-47.2,61.8-47.2,63.5c0,1.7,20.6,237.2,45.8,525.4c44.7,512.8,45.8,523.9,49,526
		c19.6,13.2,127.8,67.4,177.7,89.1c96.2,41.9,195.6,76.2,297.3,102.7c19.3,5,16.2,9.2,27.9-39.7c5.7-23.8,10.1-43.2,9.9-43.3
		s-41.1,1.6-91.3,3.3H2464.7z M2704,1315c-2.7,2.8-571.6,827-580.3,840.8c-7,10.9-14.9,21.3-23.6,31c-1.9,2.2,1.3,5.6,29.7,30.6
		c17.4,15.4,38,33.7,45.5,40.5c45.9,41.3,133,117.7,136.2,119.1c3.1,1.3,4,1.7,4.2,1.3c0.2-0.3,15.6-19.5,33.9-42.6
		c18.3-23.1,35.5-44.1,38.3-46.6c2.7-2.5,67.4-88.5,143.6-191.3c76.2-102.8,140.1-188.4,141.8-190.5c5.7-6.1,13.3-3.6,13.3,4.4
		c0,3.4-93.8,657.9-236.1,1646.9c-19.6,136.3-49.7,345.5-59,410.4c-3.4,23.8-6.5,44.6-6.9,46.9c-0.8,4-0.7,4.1,6.5,4.1
		c4,0,70.3-2.1,147.2-4.6l186.5-6.3l46.6-1.8l0.5-7.9c0-4.5,21.3-527.6,46.8-1162.4l46.4-1154.1l42.9-80.7
		c23.7-44.4,43-81.4,42.9-82.5c-0.1-1-34.2-26.5-76.1-56.6c-69.8-50.3-76-55.2-76.4-59.5c-0.4-4.4,2.9-9.4,20.9-34.4
		c7.5-9.8,14.3-20.1,20.4-30.8c-0.6-0.6-31-6.4-67.5-13.1c-45.5-8.3-62.6-11-67.1-10.6c-0.3,0.1-0.6,0.2-0.9,0.5L2704,1315z
		 M2078.7,2189.5c0-3.6,6.3-12.3,18.4-25.5c6.6-7.3,112.3-158.7,297.2-426.9l290.7-421.2c3.2-4.8,3.5-6,1.8-8.7
		c-1.4-2-1.6-4.6-0.5-6.8c0.8-2,32.8-47.6,71-101.4c47-66,70.7-97.9,72.7-98.6c2.2-0.4,4.4-0.1,6.4,0.8c2.8,1.5,6.1-2.1,35.5-39.7
		l34.3-43.1c1.8-4.8,2.7-9.9,2.7-15.1l0.9-12.9l-16.2-7.9c-86.2-42.1-148.1-120.6-168-213.2c-18.5-88.7,4-180.8,61.5-251.5
		c20.9-25.8,45.8-48.2,73.8-66.3l16.2-10.7l-9.9,0.9l-37.5,3.2c-1044.9,88.5-1819,992.7-1728.9,2019.6
		c15.4,176,56.2,348.9,121.1,513.6c12.2,30.5,25.5,62.3,26.1,62.3c0.6,0,93.8-93.2,207.7-207.1c114-113.9,207.2-207.5,207.2-208.2
		c-4.7-3.2-9.7-5.8-14.9-7.9c-119.5-57.3-169.2-198.9-110.9-316.4c58.3-117.5,202.4-166.3,321.9-109
		c119.5,57.3,169.2,198.9,110.9,316.4c-8.3,16.8-18.6,32.6-30.7,47c-8.1,10-9.7,12.4-8.1,14.8c1.6,2.4,2.1,2.3,2.7,1.6
		s48.5-68.4,105.6-150.8c57.1-82.4,106.7-152.5,109.5-156.2l5-6.9l-26.9-23.8c-14.8-13.1-29.7-26-33.2-28.7
		C2083.3,2197,2078.7,2192.2,2078.7,2189.5z M4893.5,2448.8l1.1-12.9l-124.4-117c-68.4-64.3-128.3-120.6-133.2-125l-8.7-7.9
		l0.8,88.3c0.4,48.6,1.8,206.4,3,350.8l2.2,262.4l39.2,91c48.9,113.7,47.8,111.1,49.7,107.9c0.8-1.3,8.1-16.6,15.3-33.7
		C4823.9,2861.3,4876.3,2657.2,4893.5,2448.8z M4558.5,3368.8c8.8-12.7,9-13.3,7.3-18.6c-2.7-8.9-129.2-307.2-129.8-307.2
		s-3.2,23.8-6.6,50.7c-3.4,26.9-18.9,150.8-34.4,274.2s-28.2,225.8-28.2,227.3c0,3.3,20.9-17.5,52.7-52.7
		C4469.3,3487.3,4515.7,3429.3,4558.5,3368.8z M1799.5,3756.3c0.7,0,0.9-3.1,0.4-7.1c-0.5-4-2.3-21-4-37.9
		c-6.5-65-39.9-370.2-41-374.4c0-1.3,0-2.5-1-2.2c-1,0.2-8.1,14.6-38.4,79.4c-9.4,20.2-31.7,67.9-49.6,105.8
		c-17.8,37.9-33.8,72.2-35.3,76l-2.7,7l30.9,29.8c32.3,31.1,55.5,52.4,85.1,78C1769.7,3733,1798,3756.2,1799.5,3756.3z
		 M1550.4,3189.1c43.1-124.6,78.3-226.8,78.3-227.6s-162.9,151.5-171,160.1c-4.9,5.1-10.1,10-15.5,14.6
		c-11.6,9.8-99.1,92.2-99.1,93.4s41.9,69.5,58.1,93.8c35.1,52.6,67,96.2,68.9,94.3C1471.2,3417.2,1507.1,3314,1550.4,3189.1
		L1550.4,3189.1z"/>
	<path class="st0" d="M4894.6,2436.2l-1.1,12.9c-17.3,208.4-69.7,412.4-155.1,603.9c-7.6,17.1-14.5,32.4-15.3,33.7
		c-1.9,3.3-0.7,5.8-49.7-107.9l-39.2-91l-2.2-262.4c-1.2-144.3-2.6-302.2-3-350.8l-0.8-88.3l8.7,7.9c4.8,4.4,64.6,60.7,133.2,125
		L4894.6,2436.2z"/>
	<path class="st0" d="M4890.1,2125l1,12.8l-165.6-162.4c-153.4-150.8-166-162.5-172.4-164l-8.1-2.1c-0.8,0,4.7-5.2,12.2-11
		c51-39.7,85.5-96.4,96.9-159.4c4.5-29.5,4.5-59.4,0-88.9c-25.5-142.5-163.7-237.6-308.7-212.5c-110.4,19.1-196.8,104-216.3,212.5
		c-4.5,29.5-4.5,59.4,0,88.9c14.9,83.1,70,153.8,147.6,189.8c5.6,2.3,11,4.9,16.2,7.9c-5.2,2.2-10.6,3.9-16.2,5.1
		c-9,1.9-17.5,5.4-25.3,10.2c-13.8,9.1-13.5,8.8-48.5,47c-13.4,14.9-39.4,43.3-57.7,63.1l-121.5,132.9l-93.8,102.1
		c-2.7,2.9-4.9,4.6-4.9,3.7s-8.1-15.9-18.4-33.3s-18.3-31.7-18.3-32.5c-1.7-3.5-3.7-6.9-6-10.2c-3.2-5.2-124.7-215-270-466.3
		s-267.3-462.7-271.4-469.5c-2.8-4.4-5.3-8.9-7.4-13.7c0-2.5-96.3-175.1-98.5-176.4c-2.3-1-5-0.9-7.3,0.4c-4.7,1.7-5.2,1.5-10.6-3.6
		c-5.3-5.1-5.5-5.9-4.3-10.2c0.9-3.7,1.1-7.6,0.6-11.4l-0.7-6.7l17.6-12.6c22-16,41.8-34.7,59-55.6c57.6-70.8,80.2-163.1,61.7-251.9
		c-15.7-73.7-58.3-139.3-119.6-184.5c-9.4-7-16.9-12.9-16.9-13.2s0.7,0,1.8,0c7.6,0,38.6,4.6,72.7,9.9c34.1,5.3,71.5,11.7,91.7,15.9
		c32.3,6.7,42.4,8.8,52.7,11.3c6.7,1.7,14,3.3,16.2,3.7c2.2,0.4,6.5,1.5,9.9,2.4c3.4,0.9,7.4,2,9.1,2.2c4.4,0.8,41.3,10.6,53.5,14.4
		l12.2,3.5c15.3,3.7,101,31.7,124.9,40.5c67.2,24.5,132.9,52.8,196.9,84.6c143.8,70.4,277.6,158.9,398.1,263.3
		c182.7,157.4,332.4,348.3,440.8,562c30.5,59.1,57.8,119.7,81.8,181.7c26.1,68.3,48.1,138,65.9,208.8
		C4865,1942.8,4880.8,2033.5,4890.1,2125z"/>
	<path class="st0" d="M4565.9,3350.2c1.7,5.3,1.5,5.9-7.3,18.6c-42.8,60.6-89.2,118.6-139,173.7c-31.7,35.2-52.6,56-52.7,52.7
		c0-1.5,12.7-103.8,28.2-227.3c15.5-123.5,31-246.9,34.4-274.2c3.4-27.2,6.4-50.1,6.6-50.7
		C4436.3,3042.4,4563.1,3341.3,4565.9,3350.2z"/>
	<path class="st0" d="M4261.6,2199c2.2-1.8,2.4-1.6,1.9,1.4c0,1.8-41.5,370.1-91.5,818.3s-91.4,816.3-91.8,817.9
		c-1,3.5-9.4,9.4-56.5,39.1c-60.5,38.6-123.3,73.5-188.2,104.5c-27,13.1-49.8,23.8-50.9,23.8c-2.3,0,0.6,9-26.3-83.3
		c-12.7-43.7-23.4-80.6-23.8-81.9c-0.4-1.3,15.3-9.6,72.7-35.7c40.4-18.4,74.7-34.4,76.6-35.6c1.9-1.1,3.2-3,3.5-5.2
		c0-2.4-161.5-557.5-535-1834.5c-2.6-7.8-4.7-15.8-6.2-23.8c1.7,2,433,578.3,437.2,584.4c1.7,2.4,3.5,4.8,5.5,7
		c0.9,1,9.8,12.6,19.5,25.9c6.1,9,13.1,17.3,20.9,24.9c1.6,0.6,2.9,1.4,2.9,2.1c0,0.6,1.9,2,4,3c2.2,1.6,5.1,1.6,7.3,0
		c4-2.6,341-285.7,357.9-300.3C4210.6,2241.9,4247.4,2210.7,4261.6,2199z"/>
	<path class="st0" d="M3476.8,4043.7c5.5,51.4,6.5,64.8,5,66.3s-48.5,13.1-87.5,21.4c-99.9,20.8-201.4,33.8-303.4,39.1
		c-72.8,3.5-145.8,3-218.5-1.3c-35.1-2.2-35.5-2.3-34.5-7.4c0.4-2.2,4-24.9,8.1-50.5s7.3-46.8,7.5-47c0.2-0.2,134.5-22.4,298.3-49.1
		c250.8-41,298.8-49.3,305.8-52.5c3-1.5,6.1-2.8,9.4-3.7c1.5,3.1,2.3,6.6,2.3,10.1C3469.2,3974.6,3472.7,4008.2,3476.8,4043.7z"/>
	<path class="st0" d="M2910,991l-0.9,12.9c-0.1,5.1-1,10.2-2.7,15.1l-34.3,43.1c-29.5,37.2-32.7,40.8-35.5,39.7
		c-2-0.9-4.2-1.2-6.4-0.8c-2.2,0.6-25.8,32.6-72.7,98.6c-38.2,53.7-70.2,99.4-71,101.4c-1.1,2.2-0.9,4.8,0.5,6.8
		c1.7,2.6,1.5,3.9-1.8,8.7l-290.7,421.2c-184.9,267.8-290.7,419.6-297.2,426.9c-12.1,13.2-18.4,21.9-18.4,25.5
		c0,3.6,4.7,7.5,14.7,15.4c3.5,2.7,18.4,15.9,33.2,28.7l26.9,23.8l-5,6.9c-2.8,3.7-52.1,74.1-109.5,156.2s-105,149.9-105.6,150.8
		c-0.6,0.9-1.9,0-2.7-1.6c-0.9-1.6,0-4.8,8.1-14.8c84.9-100.8,70.6-250.2-32-333.7c-102.6-83.5-254.6-69.4-339.5,31.5
		c-84.9,100.8-70.6,250.2,32,333.7c14.8,12.1,31.1,22.3,48.4,30.6c5.3,2.1,10.3,4.8,14.9,7.9c0,0.7-93.3,94.4-207.2,208.2
		s-207.3,206.8-207.7,206.8s-13.9-31.7-26.1-62.3C1120.3,2721.1,1078.4,2445,1099,2170c70.6-913.4,802.6-1642.9,1730.9-1725
		l37.5-3.2l9.9-0.9l-16.2,10.7c-28,18.1-52.9,40.5-73.8,66.3c-57.5,70.7-80.1,162.9-61.6,251.5c19.7,92.6,81.4,171.3,167.6,213.6
		L2910,991z"/>
	<path class="st0" d="M1799.9,3749.2c0.5,4,0,7.1-0.4,7.1c-0.4-0.1-29.7-23.3-55.6-45.5c-29.6-25.6-52.9-46.9-85.1-78l-30.9-29.8
		l2.7-7c1.5-3.8,17.4-38,35.3-76s40.4-85.6,49.6-105.8c30.2-64.8,36.6-78.7,38.4-79.4c1.8-0.7,0.7,1,1,2.2
		c1.1,4.2,34.5,309.6,41,374.4C1797.6,3728.3,1799.4,3745.3,1799.9,3749.2z"/>
	<path class="st0" d="M1628.7,2961.4c0,0.9-35.2,103.2-78.3,227.6c-43.1,124.5-79.2,227.9-80,228.6c-1.9,1.9-33.8-41.7-68.9-94.3
		c-16.2-24.3-58.1-92-58.1-93.8s87.5-83.7,99.1-93.4c5.4-4.6,10.6-9.5,15.5-14.6C1465.8,3112.9,1627.4,2961.4,1628.7,2961.4z"/>
	<path class="st1" d="M5274.3,1985.4c-86.9-593.4-409.8-1128.8-897.8-1488.5c-6.4-5-13.1-9.7-20.1-13.8c-0.8,0-1.6-0.4-2-1.1
		c-4.2-4.4-9.2-8.1-14.7-10.9c-0.9,0-1.7-0.6-2.1-1.3c-1.2-3.3-73.3-50.8-126.1-83.2C4084,308.9,3949.2,243.3,3809,190.8
		c-206.3-75.5-422.4-122.2-642-138.7c-18-1.4-95.9-2.1-173.8-2.1c-18.7,0-34.6,0-52.6,0h-0.5h-14.6c-1.3-0.1-2.6-0.1-4,0h-1.2
		c-47.4,0-88.8,0.8-100.4,1.7c-22.8,1.7-45.5,4-68.2,6.3c-1.3-0.1-2.6-0.1-3.9,0c-0.9,0.1-1.9,0.3-2.7,0.6
		c-484,51.9-938.8,253-1299.2,574.6c-32.3,29.1-102,96.4-133.7,129.9C952.4,1142,736.7,1631.2,701.5,2148.2c-2,31.7-2,271.6,0,306.1
		c15.4,238,69.7,471.9,160.9,692.9c103,250.3,250.7,480.5,436.1,679.8c27.7,30.1,95.8,97.7,127,126.1
		c160.8,147,341.9,271.2,537.8,368.8c80,40.1,162.4,75.2,246.9,105c26.6,9.5,96.9,33,101.3,34l1.5,0.6c1,0.4,2.1,0.7,3.1,0.8
		c1.8,0.4,3.6,0.9,5.3,1.6c1.8,0.7,3.7,1.3,5.6,1.7c1.7,0,9.6,2.5,17.6,4.9c8,2.4,22.5,6.4,32.3,9c9.9,2.6,18.6,5.2,19.9,5.6
		c1.7,0.6,3.5,1.1,5.3,1.4c1.7,0,13.4,3.3,26,6.4c37.9,9.8,88.8,21,139.1,30.9c6.5,1.3,55.3,9.8,60.4,10.6l38.2,5.8
		c2.1,0.4,7.3,1,11.5,1.6s11.4,1.4,16.2,2.2c9,1.3,36.1,4.3,47.3,5c14.6,1,339.2,0.9,468.9,0c1.4,0.2,2.9,0.2,4.3,0h1.8
		c23.6,0,40.9,0,45.7-0.5c2.1,0.3,4.2,0.3,6.3,0c0.4,0,0.8,0,1.1,0c54.7-4.1,166.5-22.9,253-42.6
		c388.4-88.9,746.5-275.5,1039.3-541.6c25-22.6,96.9-93.4,122.3-120.1c91.9-97.3,175-202.3,248.6-313.7c4.8-7.4,9.7-14.8,10.7-16.5
		l19.5-31.3c9.8-15.9,17.8-28.4,17.8-28.7c0-0.2,5.9-10.4,13.2-22.7c91.1-155.9,162.9-321.9,213.9-494.5
		c29.2-99.4,51.5-200.7,66.8-303.1l5-32.3v-588.6L5274.3,1985.4z"/>
	<path class="st2" d="M3231,1020.1c1.1,0,84.2,150.8,84.2,152.6s-22.9,14.4-50.8,30.2c-27.9,15.8-51.7,29.6-52.7,30.6
		c-1.2,1.4-1.8,3.1-1.9,4.9c7.5,11.9,15.9,23.2,25.2,33.8c13.9,17,25.2,31.2,25.2,31.7s-24.2,23.8-53.9,52.5l-75.4,72.4l-21.6,20.6
		l-17.4-33.8c-9.5-18.7-20.7-40.3-24.8-48.2c-3-5.4-5.5-11-7.5-16.8C3059.4,1348.1,3229.5,1020.1,3231,1020.1z"/>
	<path class="st2" d="M3047.2,1372.4l3.4-5.8l3.7,7.5c2,4.2,6.1,11.5,9.1,16.4c4.1,6.9,7.8,14,11.1,21.3c3.1,6.8,8.1,16.4,10.8,21.2
		s7,12.9,9.3,18.1l4.1,9.3l-10.6,10.2l-87.8,84.2c-42.5,40.7-82.3,78.7-88.8,84.6l-11.3,10.6l18.8-36
		c10.3-19.8,34.2-65.1,53.1-100.6s42.6-80.4,52.8-99.8C3035.1,1394.3,3045.3,1375.7,3047.2,1372.4z"/>
	<path class="st2" d="M3001.6,1426.2c0,1-9.7,19.2-20.9,40.4c-11.2,21.2-20.8,38.6-21.4,38.6s-140-100.4-141.4-102.6
		c-1.5-2.1,5.3-11.4,21.8-34.1c8.6-11.1,16.3-22.9,23.1-35.2c0-1.8-0.5-3.5-1.4-5.1c-0.9-1.4-26.3-6.7-76-15.9
		c-41.1-7.5-74.7-14.4-74.7-15.2c0-0.8,27.1-40.8,60.3-88.7l60.4-87.3l2.4,4C2846.4,1145.7,3002,1424.9,3001.6,1426.2z"/>
	<path class="st1" d="M1470.4,3417.7c-1.9,1.9-33.8-41.7-68.9-94.3c-16.2-24.3-58.1-92-58.1-93.8s87.5-83.7,99.1-93.4
		c5.4-4.6,10.6-9.5,15.5-14.6c8.1-8.6,169.6-160.1,170.6-160.1c1,0-35.2,103.2-78.3,227.6
		C1507.3,3313.5,1471.2,3417.2,1470.4,3417.7z"/>
	<path class="st1" d="M1799.5,3756.3c-1.5,0-29.7-23.3-55.6-45.5c-29.6-25.6-52.9-46.9-85.1-78l-30.9-29.8l2.7-7
		c1.5-3.8,17.4-38,35.3-76s40.4-85.6,49.6-105.8c30.2-64.8,36.6-78.7,38.4-79.4c1.8-0.7,0.7,1,1,2.2c1.1,4.2,34.5,309.6,41,374.4
		c1.7,16.9,3.5,34,4,37.9C1800.4,3753.2,1800.2,3756.3,1799.5,3756.3z"/>
	<path class="st1" d="M1930.6,2569.6c-1.3-2.4,0-4.8,8.1-14.8c84.9-100.8,70.6-250.2-32-333.7c-102.6-83.5-254.6-69.4-339.5,31.5
		c-84.9,100.8-70.6,250.2,32,333.7c14.8,12.1,31.1,22.3,48.4,30.6c5.3,2.1,10.3,4.8,14.9,7.9c0,0.7-93.3,94.4-207.2,208.2
		c-113.9,113.8-207.2,207.4-207.6,207.4s-13.9-31.7-26.1-62.3C1120.3,2721.1,1078.4,2445,1099,2170
		c70.6-913.4,802.6-1642.9,1730.9-1725l37.5-3.2l9.9-0.9l-16.2,10.7c-28,18.1-52.9,40.5-73.8,66.3c-57.5,70.7-80.1,162.9-61.6,251.5
		c19.7,92.6,81.4,171.3,167.6,213.6l16.2,7.9l-0.9,12.9c-0.1,5.1-1,10.2-2.7,15.1l-34.3,43.1c-29.5,37.2-32.7,40.8-35.5,39.7
		c-2-0.9-4.2-1.2-6.4-0.8c-2.2,0.6-25.8,32.6-72.7,98.6c-38.2,53.7-70.2,99.4-71,101.4c-1.1,2.2-0.9,4.8,0.5,6.8
		c1.7,2.6,1.5,3.9-1.8,8.7l-290.7,421.2c-184.9,267.8-290.7,419.6-297.2,426.9c-12.1,13.2-18.4,21.9-18.4,25.5
		c0,3.6,4.7,7.5,14.7,15.4c3.5,2.7,18.4,15.9,33.2,28.7l26.9,23.8l-5,6.9c-2.8,3.7-52.1,74.1-109.5,156.2s-105,149.9-105.6,150.8
		C1932.4,2572.6,1931.5,2571.2,1930.6,2569.6z"/>
	<path class="st1" d="M2546.8,4073.5c-11.6,49-8.6,44.8-27.9,39.7c-101.7-26.5-201.1-60.8-297.3-102.7
		c-50.2-21.7-158.4-76-177.7-89.1c-3.2-2.2-4.3-13.3-49-526c-25.2-288.1-45.8-524.5-45.8-525.4s43.4-60.5,47.2-63.5
		c1.5-1.3,71.6-93.1,156-204.1s154.2-202.7,155.3-203.9c1.1-1.2,2.3-1.7,4.5,0c5.6,5.5,9,3.3,21.6-13.7c6.5-8.9,14.1-18.8,16.9-22.1
		c19.1-22.7,54.7-69.8,176.1-232.6l139.8-187.6c1.1-1.4,1.7-2.1,1.9-2.1s0,1,0,2.9c0,1.8-7.2,49.6-15.2,105.7
		c-8,56.1-22.5,156.8-32.3,223.6c-9.9,66.8-33.8,234.4-53.5,372.3c-19.8,137.9-44.2,307.7-54.3,377.4
		c-115.7,804.6-143.7,1000.1-143.7,1004.5c-0.1,2.6,0.7,5.1,2.3,7.1c1.9,1.5,19.9,1.3,93.6-1c50.2-1.7,91.5-2.9,91.7-2.8
		C2557.1,4030,2552.5,4049.9,2546.8,4073.5z"/>
	<path class="st2" d="M2771.8,4007.7l-46.6,1.8l-186.5,6.3c-76.9,2.5-143.2,4.6-147.2,4.6c-7.3,0-7.3,0-6.5-4.1
		c0.5-2.3,3.6-23.8,6.9-46.9c9.3-64.9,39.3-274.2,59-410.4c142.3-989.1,236.1-1643.5,236.1-1646.9c0-7.9-7.7-10.5-13.3-4.4
		c-1.7,1.9-65.5,87.3-141.8,190.5c-76.3,103.2-140.8,188.8-143.6,191.3c-2.7,2.5-19.9,23.8-38.3,46.6s-33.6,42.3-33.9,42.6
		c-0.3,0.3-2.2,0-4.2-1.3c-2-1.3-90.3-78-136.2-119.1c-7.6-6.8-28.1-25.1-45.5-40.5c-28.4-25.1-31.6-28.4-29.7-30.6
		c8.7-9.7,16.6-20,23.6-31c8.7-13.8,577.5-838,580.3-840.8c0.4-0.1,0.8-0.1,1.2,0c4.5-0.4,21.6,2.3,67.1,10.6
		c36.5,6.7,67,12.5,67.5,13.1c-6.1,10.7-12.9,21-20.4,30.8c-18,25.1-21.3,30.6-20.9,34.4c0.4,3.9,6.6,9.2,76.4,59.5
		c41.8,30.1,76.1,55.6,76.1,56.6c0,1-19.2,38.1-42.9,82.5l-42.9,80.7l-46.4,1154.1c-25.5,635-46.6,1157.9-46.8,1162.4L2771.8,4007.7
		z"/>
	<path class="st1" d="M2992.7,4548c-112.2,0-158.1,0-102-0.4h102h102C3150.9,4547.9,3105.3,4548,2992.7,4548z"/>
	<path class="st1" d="M3481.5,4110c-1.9,1.7-48.5,13.1-87.5,21.4c-99.9,20.8-201.4,33.8-303.4,39.1c-72.8,3.5-145.8,3-218.5-1.3
		c-35.1-2.2-35.5-2.3-34.5-7.4c0.4-2.2,4-24.9,8.1-50.5c4.1-25.6,7.3-46.8,7.5-47c0.2-0.2,134.5-22.4,298.3-49.1
		c250.8-41,298.8-49.3,305.8-52.5c3-1.5,6.1-2.8,9.4-3.7c1.5,3.1,2.3,6.6,2.3,10.1c0.6,5.6,4,39.1,8.1,74.6
		C3482,4095,3482.9,4108.5,3481.5,4110z"/>
	<path class="st2" d="M3132.2,1541.3c0.4-8.8-0.2-17.7-1.7-26.4c-1.1-4.9-5.1-18.3-8.9-29.8c-2.8-7-4.7-14.4-5.6-21.9
		c5.8-5.1,160.6-154.3,161.5-155.9c2.1-3.3,0-6.7-24.9-36.9c-8.1-9.5-15.7-19.4-22.7-29.8c0-0.7,21.1-13.1,46.3-27.4
		c33.8-19.2,42.7-24.3,46-24.3c1.1,0,1.5,0.6,2.1,1.3c0.6,0.8,124.8,214.9,274.6,473.7s274,473.5,276.3,477c1.6,2.3,3,4.7,4.1,7.3
		c0,0.5,6.5,12.1,14.5,25.9c6.2,9.8,11.3,20.3,15.4,31.1c0.3,8.8-1.6,17.5-5.4,25.4c-1.3,2.9-2,5.9-2.3,9c-0.6,4.1-2,11.2-3.1,15.9
		c-1.1,4.7-16.6,67.3-34.3,139.5s-32.3,131.5-32.8,131.8c-0.5,0.3-1.3-0.7-2.1-2.2c-0.8-1.5-31.2-42.6-36.6-49.3l-30.9-41.3
		c-16.2-21.8-32.3-43.3-35.9-47.6s-9-11.5-12.3-15.9l-9.6-13.3l-188-251.3c-134.2-179.3-185.8-246.8-188.2-247.5
		c-3.5-1.3-7.3,0.4-8.7,3.8c-0.2,0.4-0.3,0.9-0.4,1.3c0,1.7,123.8,428.6,275.6,948.2c151.8,519.6,275.5,945.7,274.6,946.2
		c-0.9,0.6-16.2,7.9-34.1,15.9l-178.9,81.8l-177.7,81.4l-32.3,14.6l-328.7,53.8c-180.8,29.6-329.6,53.9-330.7,53.9s-1.8-3.6-1-16.8
		c0.5-9.3,21.8-538.6,47.4-1176.2s46.7-1163,46.9-1167.4v-7.9l112.3-107.6l111.5-107.9l6.4,19.1c5.6,14.9,8.6,30.6,8.7,46.4
		c-0.1,7-0.5,14-1.3,21c-5.4,50.4-10,71.4-22.5,103.2c-6.2,12.3-9.1,26-8.5,39.7l-0.7,19.9l-10.6,5.5c-15.3,7-26,21-28.7,37.4
		c-5.2,27,11.9,53.3,39.1,60c6.4,2.2,13.2,2.6,19.8,1.1c18.1-2.5,33.7-13.9,41.4-30.2c3.6-6.8,5.1-14.5,4.3-22.1
		c1.2-13.3-4-26.4-14-35.4c-7.8-8.5-18.3-14.1-29.9-15.9l-8.1-0.9l0.8-18.2c0.8-17.6,1.1-18.8,9.6-40.6c5-12.8,9.1-25.8,12.4-39.1
		C3128.3,1598.7,3131.7,1570.1,3132.2,1541.3z"/>
	<path class="st1" d="M4263.4,2200.4c0,1.8-41.5,370.1-91.5,818.3s-91.4,816.3-91.8,817.9c-1,3.5-9.4,9.4-56.5,39.1
		c-60.5,38.6-123.3,73.5-188.2,104.5c-27,13.1-49.8,23.8-50.9,23.8c-2.3,0,0.6,9-26.3-83.3c-12.7-43.7-23.4-80.6-23.8-81.9
		c-0.4-1.3,15.3-9.6,72.7-35.7c40.4-18.4,74.7-34.4,76.6-35.6c1.9-1.1,3.2-3,3.5-5.2c0-2.4-161.5-557.5-535-1834.5
		c-2.6-7.8-4.7-15.8-6.2-23.8c1.7,2,433,578.3,437.2,584.4c1.7,2.4,3.5,4.8,5.5,7c0.9,1,9.8,12.6,19.5,25.9
		c6.1,9,13.1,17.3,20.9,24.9c1.6,0.6,2.9,1.4,2.9,2.1c0,0.6,1.9,2,4,3c2.2,1.6,5.1,1.6,7.3,0c4-2.6,341-285.7,357.9-300.3
		c9.6-8.5,46.4-39.7,60.6-51.4C4263.7,2197.1,4264,2197.4,4263.4,2200.4z"/>
	<path class="st1" d="M4558.5,3368.8c-42.8,60.6-89.2,118.6-139,173.7c-31.7,35.2-52.6,56-52.7,52.7c0-1.5,12.7-103.8,28.2-227.3
		c15.5-123.5,31-246.9,34.4-274.2c3.4-27.2,6.4-50.1,6.6-50.7c0.2-0.6,127,298.3,129.8,307.2
		C4567.6,3355.5,4567.1,3356.1,4558.5,3368.8z"/>
	<path class="st1" d="M4553.4,1811.4l-8.1-2.1c-0.8,0,4.7-5.2,12.2-11c51-39.7,85.5-96.4,96.9-159.4c4.5-29.5,4.5-59.4,0-88.9
		c-25.5-142.5-163.7-237.6-308.7-212.5c-110.4,19.1-196.8,104-216.3,212.5c-4.5,29.5-4.5,59.4,0,88.9
		c14.9,83.1,70,153.8,147.6,189.8c5.6,2.3,11,4.9,16.2,7.9c-5.2,2.2-10.6,3.9-16.2,5.1c-9,1.9-17.5,5.4-25.3,10.2
		c-13.8,9.1-13.5,8.8-48.5,47c-13.4,14.9-39.4,43.3-57.7,63.1l-121.8,132.9l-93.8,102.1c-2.7,2.9-4.9,4.6-4.9,3.7
		s-8.1-15.9-18.4-33.3s-18.3-31.7-18.3-32.5c-1.7-3.5-3.7-6.9-6-10.2c-3.2-5.2-124.7-215-270-466.3s-267.3-462.7-271.4-469.5
		c-2.8-4.4-5.3-8.9-7.4-13.7c0-2.5-96.3-175.1-98.5-176.4c-2.3-1-5-0.9-7.3,0.4c-4.7,1.7-5.2,1.5-10.6-3.6
		c-5.3-5.1-5.5-5.9-4.3-10.2c0.9-3.7,1.1-7.6,0.6-11.4l-0.7-6.7l17.6-12.6c22-16,41.8-34.7,59-55.6c57.6-70.8,80.2-163.1,61.7-251.9
		c-15.7-73.7-58.3-139.3-119.6-184.5c-9.4-7-16.9-12.9-16.9-13.2s0.7,0,1.8,0c7.6,0,38.6,4.6,72.7,9.9c34.1,5.3,71.5,11.7,91.7,15.9
		c32.3,6.7,42.4,8.8,52.7,11.3c6.7,1.7,14,3.3,16.2,3.7c2.2,0.4,6.5,1.5,9.9,2.4c3.4,0.9,7.4,2,9.1,2.2c4.4,0.8,41.3,10.6,53.5,14.4
		l12.2,3.5c15.3,3.7,101,31.7,124.9,40.5c67.2,24.5,132.9,52.8,196.9,84.6c143.8,70.4,277.6,158.9,398.1,263.3
		c182.7,157.4,332.4,348.3,440.8,562c30.5,59.1,57.8,119.7,81.8,181.7c26.1,68.3,48.1,138,65.9,208.8c22,89.3,37.8,180,47.2,271.5
		l1,12.8l-165.6-162.4C4572.3,1824.9,4559.7,1812.9,4553.4,1811.4z"/>
	<path class="st1" d="M4893.5,2448.8c-17.3,208.4-69.7,412.4-155.1,603.9c-7.6,17.1-14.5,32.4-15.3,33.7
		c-1.9,3.3-0.7,5.8-49.7-107.9l-39.2-91l-2.2-262.4c-1.2-144.3-2.6-302.2-3-350.8l-0.8-88.3l8.7,7.9c4.8,4.4,64.6,60.7,133.2,125
		l124.4,117L4893.5,2448.8z"/>
	<path class="st3" d="M3216.4,1013.9l-81.5,157c-44.8,86.1-81.7,156.9-82,157.2c-2,2.2-5.2-24.8-5.2-44.1v-15.1l4.5-2.6
		c9.4-6.4,17.8-14.2,24.9-23.1c2.7-4.5,4.7-9.5,5.7-14.7c1-5,3.9-17.7,6.5-28.3c2.8-8.9,4.1-18.2,3.8-27.5
		c-1.1-10.9,1.7-18.3,22.5-58.6c14.2-27.5,17.8-32.9,29.6-46.5c14.5-16.6,56.9-62.5,58.4-63c2.6,1.1,4.9,2.7,6.9,4.6L3216.4,1013.9z
		"/>
	<path class="st3" d="M3338.8,650.4c19.4,98.1-12.1,199.3-84.1,269.9c-20.1,18.6-41.7,35.6-64.6,50.6c-8.1,4.8-9,10.7-2,17.2
		c2.1,1.8,3.8,3.8,5.2,6.2c0,0.7-10.8,12.7-24.2,26.5c-17.2,17.6-33.4,36.1-48.5,55.6c-13.5,22.9-25.7,46.5-36.4,70.7
		c-5.4,13.3-7.3,15.9-10.9,17.9c-3.2,1.6-6.1,3.6-8.6,6.2c-4.3,4.5-4.8,6.4-9.7,38.8c-2.9,18.6-3.6,20.4-11.1,27.3
		c-1.9,1.9-4.1,3.6-6.5,4.9c-2.1,0-9-11.3-13.9-22.5c-2.6-6.2-6.8-15.9-9.3-21c-2.5-5.3-4.5-10.8-5.9-16.5
		c-1.9-10.1-2.8-11.7-7.4-13.3c-3.2-1.2-4.8-3.5-8.1-11.7c-9-26.7-23.4-51.3-42.3-72.3c-11.8-13.6-20.1-29.8-24.2-47.2l-4-14.7
		l9.2-11.7c3.9-4.4,7-9.3,9.2-14.7c0.1-3.4-2.6-6.3-6.1-6.5c-1.5-0.1-3-0.7-4.2-1.7c-4.4-2.5-9-4.4-13.9-5.8
		c-10.1-3.8-19.8-8.3-29.2-13.6c-146.7-81.9-198.2-265.1-114.9-409.4c26.5-45.9,64.8-84.1,111.1-110.8l14.7-8.6l15.5-0.8
		c8.1,0,47.5-0.8,86.6-0.8c53.9-0.7,107.8,1.3,161.5,6l29.1,2.4l11.1,6.7c41.2,25.9,75.7,60.9,100.8,102.2
		C3319.9,585.4,3332.1,617.3,3338.8,650.4z"/>
	<path class="st3" d="M3038.9,1333.9l3.7,14l-15.4,29.8c-8.5,16.4-15.7,29.9-16.2,29.9c-0.4,0-37.6-65.2-82.5-145
		c-55.3-98.6-80.8-145.7-80.1-146.9l32.3-40.2c21-26.3,29.7-36.4,31.3-36l0,0c0,0,2.2,6.5,3.6,11.5c4.5,15.1,12.4,29.1,23,41
		c17.7,19.1,31.2,41.5,39.7,66l5.8,15.5l-3.3,3.4c-4.5,4.8-4.2,12.5,1.4,29.4c5.4,18.8,15.4,35.9,29.2,50
		c8.1,8.6,13.2,12.1,16.9,12.9l5.2,1l1,24.8C3034.4,1308,3035.9,1321.1,3038.9,1333.9z"/>
	<path class="st3" d="M3767.5,4010.7c-1.6,1.4-58.3,24.5-86.2,35c-40.4,15.2-41.3,15.9-41.3,15.3s-4,1.3-8.1,2.9
		c-12.9,4.9-80.8,26.5-104.2,33.2c-11.5,3.3-21.9,6-23.2,6c-2.7,0-2.3,2-9.4-53.3c-3-23.1-7.1-54.5-9.1-69.7
		c-2-15.2-3.6-27.9-3.4-28c0.2-0.2,42-19.4,92.8-42.6c50.8-23.3,97.3-44.6,103.1-47.6c14.4-7,40.8-18.7,41.2-18.2
		C3720.2,3844.1,3767.5,4008.5,3767.5,4010.7z"/>
	<path class="st3" d="M2836.2,4067.3c0.4,0.5-12.4,85.3-14.1,93.1c-0.6,2.6-1.8,4-3.4,4c-1.6-0.1-16.2-1.7-32.8-3.7
		c-74.6-8.4-148.6-21-221.8-37.6c-8.1-1.7-11.9-3.3-11.9-4.8s19.9-87.7,20.5-88.4c0.6-0.7,180.8-6.5,190.4-6.5h6.1l0.4,25
		c0,21.7,0.8,25.2,3.1,26.6c2.3,1.3,10.2,0.5,32.3-3.2C2822.6,4069.2,2836,4067.2,2836.2,4067.3z"/>
	<path class="st3" d="M4894.9,2181.3c3.3,62.3,3.7,82.3,3.1,138.1c-0.7,64.9-1.9,95.2-3.9,95.2c-0.6,0-61.5-56.7-135.1-126
		c-100.6-94.7-134.9-126-137.3-126c-2.3,0.1-4.5,1-6.2,2.5c-2.3,2.3-2.5,8.5-1.5,78.4c0.5,41.7,2,204.5,3.3,361.8l2.3,285.7
		l46.8,108.7l46.1,108.8l-11.9,23.4c-26.2,51.8-60,111.1-90.5,159.2c-23.4,36.8-30.1,46.5-31.7,46c-1.5-0.5-138.2-324.8-138.2-328.4
		c-0.5-2.2-1.8-4.1-3.8-5.2c-3.5-2.2-4.2-2.2-7.5,0c-3.3,2.2-3.9,4.2-4.6,9.5c-0.5,4-17.8,141-38.3,304.6
		c-20.5,163.6-38,298.7-38.8,300.3c-1.8,3.2-64.1,61.4-89.6,83.7c-37.9,33.1-83.6,69.4-127.7,101.6c-13,9.5-25.5,18.4-27.8,19.9
		c-4.2,2.6-4.2,2.5-4.2-0.8c0-8.7,182-1634.2,183.5-1638.5c2.3-6.7-1.3-12.3-7.7-12.3c-3.6,0-9.7,4.5-30.4,22.4
		c-36.8,31.7-392.4,327.1-393.7,327.1c0-1.7,16.2-66.8,35.3-145.9l36.2-145.4l102.6-112.1c155.3-169.4,216.4-235.9,223.6-243.4
		c9.4-9.8,15.3-12.8,37.8-18.8c33.7-9,36.2-9.8,38.5-12.1c5.7-5.6,1.2-12.5-8.1-12.5c-17.4-5-34.1-12-49.7-21
		c-111-63.3-156-198.5-104.4-314c12.1-27.5,29.4-52.5,51-73.7c97.6-97.8,257.4-99.4,356.9-3.5c90.3,87,101.1,226.4,25.3,325.9
		c-9.4,12.4-18.7,21.7-53.3,53.5c-11.3,10.5-12.4,12-12,16.5c0.4,4.5,1.7,6.2,17.7,12c9.3,3.4,12.7,6.6,178.3,169.4l168.7,165.8
		L4894.9,2181.3z"/>
	<path class="st3" d="M2297.7,2385.7c0,0.4-80.8,107.1-179.8,237.2s-180,237.2-180.3,238.1c-0.3,1,18.9,234,43,518
		c24.1,284,43.4,519.4,43.1,523.3l-0.6,7l-21.4-12.9c-46.8-28.1-94.6-60.1-145.4-97.6c-33.6-24.8-38.6-29.1-38.6-32.9
		c0-1.5-2.4-24.8-5.3-51.6c-19.2-178-28.7-266.9-32.3-300.9c-2.2-21.4-4.6-43-5.4-47.6c-0.8-4.6-2.8-20.6-4.4-34.8
		c-3.4-29.3-5.4-35-12.4-35c-2.7-0.2-5.3,1.1-6.7,3.4c-1.2,1.8-12,25.3-24.2,52.1c-19.3,43.3-52.2,114.3-95.4,206.4
		c-4.5,10.5-9.8,20.6-15.7,30.4c-2,0.7-53.2-54.5-72.2-77.6c-4.4-5.3-9.8-11.7-12-14.3c-4.6-5-21.6-25.9-38.4-47
		c-8.1-10.4-10.9-14.9-10.3-17.3c1-4.2,54.4-160,89.7-261.9c15.3-44.1,34.9-100.9,43.5-126s20.4-58.6,25.8-74.3
		c4-10.4,7.3-21,10.1-31.7c0-9.7-5.8-10.6-16.6-2.4c-4.1,3.1-72.7,67.3-153.4,142.9c-133.3,124.9-145.5,136-147.4,133.5
		c-3.6-4.8-25.4-45.2-41.8-77.1c-23-45.2-38.1-78.3-36.7-80.6c0.6-1.1,82.2-83.1,181.4-182.2c253.8-254,243.6-243.3,243.7-246.9
		s-1.5-5.1-14.6-10c-8.3-3.4-16.4-7.4-24.2-11.7c-110.3-61.1-149.2-198.5-87.1-306.9c62.2-108.4,202-146.7,312.2-85.6
		c72,39.9,116.6,114.8,116.6,196.1c0.2,28.5-5.3,56.9-16.2,83.3c-10.5,25.8-25.8,49.5-45.1,69.8c-3.6,2.8-6.2,6.6-7.5,10.9
		c3.4,8.6,8.7,16.4,15.6,22.7c1.6,1.2,3.8,1.2,5.3,0c7.7-8.1,14.3-17.1,19.7-26.8c4.5-7.8,9.4-15.3,14.8-22.5
		c7.7-10.7,17.7-24.9,22.3-31.7c4.6-6.8,11-15.1,14.1-18.8c3.1-3.7,39.8-55.6,81.6-116c41.8-60.4,76.5-108.8,77.4-108.8
		C2167,2269.1,2297.7,2384.8,2297.7,2385.7z"/>
</g>
<path class="st4" d="M519.5,4259.6l0.3,3L519.5,4259.6z"/>
<path class="st4" d="M270.1,4045.8h2.6H270.1z"/>
<path class="st4" d="M311.9,4046.9l-3-0.3L311.9,4046.9z"/>
<path class="st4" d="M166.9,4484.3l-2.5-1.5L166.9,4484.3z"/>
<path class="st4" d="M226.9,4508.8l3,0.3L226.9,4508.8z"/>
<line class="st5" x1="139" y1="4465.1" x2="136.6" y2="4463.5"/>
<line class="st5" x1="419" y1="4473.6" x2="421.7" y2="4471.9"/>
<line class="st5" x1="454.5" y1="4443.2" x2="452.1" y2="4446.1"/>
<line class="st5" x1="480.8" y1="4410.7" x2="479" y2="4413.6"/>
<line class="st5" x1="497.4" y1="4381.9" x2="498.6" y2="4379.2"/>
<line class="st5" x1="344.9" y1="4508.1" x2="347.7" y2="4507.2"/>
<line class="st5" x1="380.3" y1="4495.6" x2="382.5" y2="4494.7"/>
<line class="st5" x1="262.8" y1="4514.9" x2="265.8" y2="4515.2"/>
<line class="st5" x1="519.9" y1="4297.2" x2="519.8" y2="4294.5"/>
<line class="st5" x1="68.3" y1="4373.3" x2="69.4" y2="4375.1"/>
<line class="st5" x1="79.1" y1="4395" x2="80.2" y2="4397.1"/>
<line class="st5" x1="95.9" y1="4420.9" x2="97.5" y2="4422.6"/>
<line class="st5" x1="115.4" y1="4444.2" x2="113.9" y2="4442.3"/>
<ellipse class="st6" cx="5207.8" cy="2312.5" rx="92.2" ry="456.4"/>
</svg>
